<svg xmlns="http://www.w3.org/2000/svg" viewBox="0 0 1440 320">
  <path fill="#0099ff" fill-opacity="0.9"
    d="M0,192L8.6,170.7C17.1,149,34,107,51,96C68.6,85,86,107,103,106.7C120,107,137,85,154,90.7C171.4,96,189,128,206,128C222.9,128,240,96,257,69.3C274.3,43,291,21,309,48C325.7,75,343,149,360,197.3C377.1,245,394,267,411,277.3C428.6,288,446,288,463,266.7C480,245,497,203,514,208C531.4,213,549,267,566,250.7C582.9,235,600,149,617,122.7C634.3,96,651,128,669,144C685.7,160,703,160,720,149.3C737.1,139,754,117,771,128C788.6,139,806,181,823,186.7C840,192,857,160,874,138.7C891.4,117,909,107,926,112C942.9,117,960,139,977,149.3C994.3,160,1011,160,1029,181.3C1045.7,203,1063,245,1080,256C1097.1,267,1114,245,1131,202.7C1148.6,160,1166,96,1183,74.7C1200,53,1217,75,1234,90.7C1251.4,107,1269,117,1286,128C1302.9,139,1320,149,1337,181.3C1354.3,213,1371,267,1389,266.7C1405.7,267,1423,213,1431,186.7L1440,160L1440,320L1431.4,320C1422.9,320,1406,320,1389,320C1371.4,320,1354,320,1337,320C1320,320,1303,320,1286,320C1268.6,320,1251,320,1234,320C1217.1,320,1200,320,1183,320C1165.7,320,1149,320,1131,320C1114.3,320,1097,320,1080,320C1062.9,320,1046,320,1029,320C1011.4,320,994,320,977,320C960,320,943,320,926,320C908.6,320,891,320,874,320C857.1,320,840,320,823,320C805.7,320,789,320,771,320C754.3,320,737,320,720,320C702.9,320,686,320,669,320C651.4,320,634,320,617,320C600,320,583,320,566,320C548.6,320,531,320,514,320C497.1,320,480,320,463,320C445.7,320,429,320,411,320C394.3,320,377,320,360,320C342.9,320,326,320,309,320C291.4,320,274,320,257,320C240,320,223,320,206,320C188.6,320,171,320,154,320C137.1,320,120,320,103,320C85.7,320,69,320,51,320C34.3,320,17,320,9,320L0,320Z">
  </path>
</svg>